<mxfile host="65bd71144e">
    <diagram id="C5RBs43oDa-KdzZeNtuy" name="Page-1">
        <mxGraphModel dx="1520" dy="2300" grid="1" gridSize="10" guides="1" tooltips="1" connect="1" arrows="1" fold="1" page="1" pageScale="1" pageWidth="827" pageHeight="1169" math="0" shadow="0">
            <root>
                <mxCell id="WIyWlLk6GJQsqaUBKTNV-0"/>
                <mxCell id="WIyWlLk6GJQsqaUBKTNV-1" parent="WIyWlLk6GJQsqaUBKTNV-0"/>
                <mxCell id="zkfFHV4jXpPFQw0GAbJ--0" value="Roster" style="swimlane;fontStyle=2;align=center;verticalAlign=top;childLayout=stackLayout;horizontal=1;startSize=26;horizontalStack=0;resizeParent=1;resizeLast=0;collapsible=1;marginBottom=0;rounded=0;shadow=0;strokeWidth=1;" parent="WIyWlLk6GJQsqaUBKTNV-1" vertex="1">
                    <mxGeometry x="210" y="70" width="190" height="180" as="geometry">
                        <mxRectangle x="230" y="140" width="160" height="26" as="alternateBounds"/>
                    </mxGeometry>
                </mxCell>
                <mxCell id="1" value="+string positions[4]&#10;+int numberOfPositionsNeeded&#10;+int numberOfPossiblePositions&#10;+int numberOfEvents&#10;+events *rosterArray" style="text;align=left;verticalAlign=top;spacingLeft=4;spacingRight=4;overflow=hidden;rotatable=0;points=[[0,0.5],[1,0.5]];portConstraint=eastwest;" vertex="1" parent="zkfFHV4jXpPFQw0GAbJ--0">
                    <mxGeometry y="26" width="190" height="74" as="geometry"/>
                </mxCell>
                <mxCell id="zkfFHV4jXpPFQw0GAbJ--4" value="" style="line;html=1;strokeWidth=1;align=left;verticalAlign=middle;spacingTop=-1;spacingLeft=3;spacingRight=3;rotatable=0;labelPosition=right;points=[];portConstraint=eastwest;" parent="zkfFHV4jXpPFQw0GAbJ--0" vertex="1">
                    <mxGeometry y="100" width="190" height="8" as="geometry"/>
                </mxCell>
                <mxCell id="PKsJKQqPV7YX6nOiL1vu-18" value="+Roster();&lt;br&gt;+ events* getEvents()&lt;br&gt;+void CreateRoster()&lt;br&gt;+ int getNumberOfEvents&lt;br&gt;+void setNumberOfEvents" style="text;html=1;align=left;verticalAlign=middle;resizable=0;points=[];autosize=1;strokeColor=none;fillColor=none;" parent="zkfFHV4jXpPFQw0GAbJ--0" vertex="1">
                    <mxGeometry y="108" width="190" height="70" as="geometry"/>
                </mxCell>
                <mxCell id="zkfFHV4jXpPFQw0GAbJ--6" value="Event" style="swimlane;fontStyle=0;align=center;verticalAlign=top;childLayout=stackLayout;horizontal=1;startSize=26;horizontalStack=0;resizeParent=1;resizeLast=0;collapsible=1;marginBottom=0;rounded=0;shadow=0;strokeWidth=1;" parent="WIyWlLk6GJQsqaUBKTNV-1" vertex="1">
                    <mxGeometry x="190" y="300" width="220" height="260" as="geometry">
                        <mxRectangle x="130" y="380" width="160" height="26" as="alternateBounds"/>
                    </mxGeometry>
                </mxCell>
                <mxCell id="zkfFHV4jXpPFQw0GAbJ--7" value="+int numberOfStaffNeeded&#10;+Person* rosterOfPeople&#10;string eventName;&#10;int weekNumber" style="text;align=left;verticalAlign=top;spacingLeft=4;spacingRight=4;overflow=hidden;rotatable=0;points=[[0,0.5],[1,0.5]];portConstraint=eastwest;" parent="zkfFHV4jXpPFQw0GAbJ--6" vertex="1">
                    <mxGeometry y="26" width="220" height="64" as="geometry"/>
                </mxCell>
                <mxCell id="zkfFHV4jXpPFQw0GAbJ--9" value="" style="line;html=1;strokeWidth=1;align=left;verticalAlign=middle;spacingTop=-1;spacingLeft=3;spacingRight=3;rotatable=0;labelPosition=right;points=[];portConstraint=eastwest;" parent="zkfFHV4jXpPFQw0GAbJ--6" vertex="1">
                    <mxGeometry y="90" width="220" height="8" as="geometry"/>
                </mxCell>
                <mxCell id="zkfFHV4jXpPFQw0GAbJ--10" value="+events()&#10;+getNumberOfStaffNeeded()&#10;+setNumberOfStaffNeeded()&#10;+getWeekNumber()&#10;+setWeekNumber()&#10;+setEventName()&#10;+getEventName()&#10;+getNumberStaffRequired()&#10;+setNumberStaffRequired()&#10;+~events()&#10;&#10;" style="text;align=left;verticalAlign=top;spacingLeft=4;spacingRight=4;overflow=hidden;rotatable=0;points=[[0,0.5],[1,0.5]];portConstraint=eastwest;fontStyle=4" parent="zkfFHV4jXpPFQw0GAbJ--6" vertex="1">
                    <mxGeometry y="98" width="220" height="160" as="geometry"/>
                </mxCell>
                <mxCell id="PKsJKQqPV7YX6nOiL1vu-0" value="Person" style="swimlane;fontStyle=1;align=center;verticalAlign=top;childLayout=stackLayout;horizontal=1;startSize=20;horizontalStack=0;resizeParent=1;resizeParentMax=0;resizeLast=0;collapsible=1;marginBottom=0;" parent="WIyWlLk6GJQsqaUBKTNV-1" vertex="1">
                    <mxGeometry x="210" y="640" width="180" height="190" as="geometry"/>
                </mxCell>
                <mxCell id="PKsJKQqPV7YX6nOiL1vu-1" value="+ string personName&#10;+ int competencies[]&#10;+int age&#10;" style="text;strokeColor=none;fillColor=none;align=left;verticalAlign=top;spacingLeft=4;spacingRight=4;overflow=hidden;rotatable=0;points=[[0,0.5],[1,0.5]];portConstraint=eastwest;" parent="PKsJKQqPV7YX6nOiL1vu-0" vertex="1">
                    <mxGeometry y="20" width="180" height="50" as="geometry"/>
                </mxCell>
                <mxCell id="PKsJKQqPV7YX6nOiL1vu-2" value="" style="line;strokeWidth=1;fillColor=none;align=left;verticalAlign=middle;spacingTop=-1;spacingLeft=3;spacingRight=3;rotatable=0;labelPosition=right;points=[];portConstraint=eastwest;" parent="PKsJKQqPV7YX6nOiL1vu-0" vertex="1">
                    <mxGeometry y="70" width="180" height="8" as="geometry"/>
                </mxCell>
                <mxCell id="PKsJKQqPV7YX6nOiL1vu-3" value="+person()&#10;+void setPersonName()&#10;+String getPersonName()&#10;+ void getContactInformation()&#10;+ void setAge()&#10;+ int setAge()&#10;+~person()&#10;&#10;" style="text;strokeColor=none;fillColor=none;align=left;verticalAlign=top;spacingLeft=4;spacingRight=4;overflow=hidden;rotatable=0;points=[[0,0.5],[1,0.5]];portConstraint=eastwest;" parent="PKsJKQqPV7YX6nOiL1vu-0" vertex="1">
                    <mxGeometry y="78" width="180" height="112" as="geometry"/>
                </mxCell>
                <mxCell id="PKsJKQqPV7YX6nOiL1vu-4" value="Child" style="swimlane;fontStyle=1;align=center;verticalAlign=top;childLayout=stackLayout;horizontal=1;startSize=26;horizontalStack=0;resizeParent=1;resizeParentMax=0;resizeLast=0;collapsible=1;marginBottom=0;" parent="WIyWlLk6GJQsqaUBKTNV-1" vertex="1">
                    <mxGeometry x="390" y="1001" width="198" height="100" as="geometry"/>
                </mxCell>
                <mxCell id="PKsJKQqPV7YX6nOiL1vu-5" value="+ string contactInformation&#10;+ int contactCount" style="text;strokeColor=none;fillColor=none;align=left;verticalAlign=top;spacingLeft=4;spacingRight=4;overflow=hidden;rotatable=0;points=[[0,0.5],[1,0.5]];portConstraint=eastwest;" parent="PKsJKQqPV7YX6nOiL1vu-4" vertex="1">
                    <mxGeometry y="26" width="198" height="34" as="geometry"/>
                </mxCell>
                <mxCell id="4" value="" style="line;strokeWidth=4;html=1;perimeter=backbonePerimeter;points=[];outlineConnect=0;" vertex="1" parent="PKsJKQqPV7YX6nOiL1vu-4">
                    <mxGeometry y="60" width="198" height="10" as="geometry"/>
                </mxCell>
                <mxCell id="3" value="+void addContactInformation()&lt;br&gt;+ void removeContactInformation()" style="text;html=1;align=center;verticalAlign=middle;resizable=0;points=[];autosize=1;strokeColor=none;" vertex="1" parent="PKsJKQqPV7YX6nOiL1vu-4">
                    <mxGeometry y="70" width="198" height="30" as="geometry"/>
                </mxCell>
                <mxCell id="PKsJKQqPV7YX6nOiL1vu-8" value="Adults" style="swimlane;fontStyle=1;align=center;verticalAlign=top;childLayout=stackLayout;horizontal=1;startSize=26;horizontalStack=0;resizeParent=1;resizeParentMax=0;resizeLast=0;collapsible=1;marginBottom=0;" parent="WIyWlLk6GJQsqaUBKTNV-1" vertex="1">
                    <mxGeometry x="60" y="1000" width="230" height="130" as="geometry"/>
                </mxCell>
                <mxCell id="ljBFtL3j8um4c9siC0ev-3" value="+ int workingWithChildrenNumber" style="text;strokeColor=none;fillColor=none;align=left;verticalAlign=top;spacingLeft=4;spacingRight=4;overflow=hidden;rotatable=0;points=[[0,0.5],[1,0.5]];portConstraint=eastwest;" parent="PKsJKQqPV7YX6nOiL1vu-8" vertex="1">
                    <mxGeometry y="26" width="230" height="24" as="geometry"/>
                </mxCell>
                <mxCell id="PKsJKQqPV7YX6nOiL1vu-10" value="" style="line;strokeWidth=1;fillColor=none;align=left;verticalAlign=middle;spacingTop=-1;spacingLeft=3;spacingRight=3;rotatable=0;labelPosition=right;points=[];portConstraint=eastwest;" parent="PKsJKQqPV7YX6nOiL1vu-8" vertex="1">
                    <mxGeometry y="50" width="230" height="8" as="geometry"/>
                </mxCell>
                <mxCell id="ljBFtL3j8um4c9siC0ev-7" value="+ int getWorkingWithChildrenNum&#10;+ setWorkingWithChildrenNum()&#10;+ void addContactInformation()&#10;+void removeContactInformation()" style="text;strokeColor=none;fillColor=none;align=left;verticalAlign=top;spacingLeft=4;spacingRight=4;overflow=hidden;rotatable=0;points=[[0,0.5],[1,0.5]];portConstraint=eastwest;" parent="PKsJKQqPV7YX6nOiL1vu-8" vertex="1">
                    <mxGeometry y="58" width="230" height="72" as="geometry"/>
                </mxCell>
                <mxCell id="PKsJKQqPV7YX6nOiL1vu-14" value="" style="endArrow=diamondThin;endFill=0;endSize=24;html=1;exitX=0.5;exitY=0;exitDx=0;exitDy=0;" parent="WIyWlLk6GJQsqaUBKTNV-1" source="zkfFHV4jXpPFQw0GAbJ--6" edge="1">
                    <mxGeometry width="160" relative="1" as="geometry">
                        <mxPoint x="250" y="470" as="sourcePoint"/>
                        <mxPoint x="300" y="250" as="targetPoint"/>
                    </mxGeometry>
                </mxCell>
                <mxCell id="PKsJKQqPV7YX6nOiL1vu-16" value="Extends" style="endArrow=block;endSize=16;endFill=0;html=1;exitX=0.5;exitY=0;exitDx=0;exitDy=0;" parent="WIyWlLk6GJQsqaUBKTNV-1" source="PKsJKQqPV7YX6nOiL1vu-4" edge="1">
                    <mxGeometry width="160" relative="1" as="geometry">
                        <mxPoint x="250" y="620" as="sourcePoint"/>
                        <mxPoint x="310" y="840" as="targetPoint"/>
                    </mxGeometry>
                </mxCell>
                <mxCell id="PKsJKQqPV7YX6nOiL1vu-17" value="Extends" style="endArrow=block;endSize=16;endFill=0;html=1;exitX=0.5;exitY=0;exitDx=0;exitDy=0;entryX=0.532;entryY=1.016;entryDx=0;entryDy=0;entryPerimeter=0;" parent="WIyWlLk6GJQsqaUBKTNV-1" source="PKsJKQqPV7YX6nOiL1vu-8" edge="1" target="PKsJKQqPV7YX6nOiL1vu-3">
                    <mxGeometry width="160" relative="1" as="geometry">
                        <mxPoint x="470" y="840" as="sourcePoint"/>
                        <mxPoint x="310" y="910" as="targetPoint"/>
                        <Array as="points"/>
                    </mxGeometry>
                </mxCell>
                <mxCell id="ljBFtL3j8um4c9siC0ev-0" value="Relation" style="endArrow=open;html=1;endSize=12;startArrow=diamondThin;startSize=14;startFill=0;edgeStyle=orthogonalEdgeStyle;entryX=0.5;entryY=1;entryDx=0;entryDy=0;exitX=0.5;exitY=0;exitDx=0;exitDy=0;" parent="WIyWlLk6GJQsqaUBKTNV-1" source="PKsJKQqPV7YX6nOiL1vu-0" target="zkfFHV4jXpPFQw0GAbJ--6" edge="1">
                    <mxGeometry relative="1" as="geometry">
                        <mxPoint x="490" y="670" as="sourcePoint"/>
                        <mxPoint x="320" y="580" as="targetPoint"/>
                    </mxGeometry>
                </mxCell>
                <mxCell id="ljBFtL3j8um4c9siC0ev-1" value="0..n" style="edgeLabel;resizable=0;html=1;align=left;verticalAlign=top;" parent="ljBFtL3j8um4c9siC0ev-0" connectable="0" vertex="1">
                    <mxGeometry x="-1" relative="1" as="geometry">
                        <mxPoint x="10" y="-30" as="offset"/>
                    </mxGeometry>
                </mxCell>
                <mxCell id="ljBFtL3j8um4c9siC0ev-2" value="1" style="edgeLabel;resizable=0;html=1;align=right;verticalAlign=top;" parent="ljBFtL3j8um4c9siC0ev-0" connectable="0" vertex="1">
                    <mxGeometry x="1" relative="1" as="geometry"/>
                </mxCell>
            </root>
        </mxGraphModel>
    </diagram>
</mxfile>